<svg xmlns="http://www.w3.org/2000/svg" xmlns:xlink="http://www.w3.org/1999/xlink" viewBox="0 0 512 512"><defs><style>.cls-1{fill:url(#Sfumatura_senza_nome_11);}.cls-2{fill:#fff;}</style><linearGradient id="Sfumatura_senza_nome_11" y1="256" x2="512" y2="256" gradientUnits="userSpaceOnUse"><stop offset="0" stop-color="#1d70b7"></stop><stop offset="1" stop-color="#2c345e"></stop></linearGradient></defs><g id="Livello_2" data-name="Livello 2"><g id="Livello_1-2" data-name="Livello 1"><rect class="cls-1" width="512" height="512" rx="100"></rect><g id="Livello_2-2" data-name="Livello 2"><g id="Livello_1-2-2" data-name="Livello 1-2"><path class="cls-2" d="M98.43,160.27a147.5,147.5,0,0,0-13-20.72,90.63,90.63,0,0,0-16.55-19.61h69.49a22.79,22.79,0,0,0-3.92,11.94,30.52,30.52,0,0,0,2.64,10.32l77.59,194.14,47.58-105.13L247,190.54a323.15,323.15,0,0,0-19.61-44.08,131.84,131.84,0,0,0-19.18-25.58h63.69a147.49,147.49,0,0,0,1.7,23.28,72.67,72.67,0,0,0,4.52,16.11l62.16,175L396.6,189.77a112.45,112.45,0,0,0,7.67-41.43,92.28,92.28,0,0,0-3.84-27.63h42.64a262.34,262.34,0,0,0-22.26,29.16,229.73,229.73,0,0,0-14.24,30.35L324.72,390.06h-3.41L264.19,238.12,196,390.06h-3.5Z"></path></g></g></g></g></svg>